<svg xmlns="http://www.w3.org/2000/svg" xml:space="preserve" width="553.57916" height="695.2171" viewBox="0 0 553.57917 695.21709"><defs><clipPath id="a" clipPathUnits="userSpaceOnUse"><path d="M0 841.89h595.28V0H0Z"/></clipPath></defs><g clip-path="url(#a)" transform="matrix(4.11176 0 0 -4.11176 -956.573 2078.435)"><path d="m0 0-.621-.164-66.699-17.144v-33.963l4.112-1.271a8.479 8.479 0 0 0 2.787-1.498c2.199-1.653 3.445-4 3.582-4.667v-13.582l-.008-36.005V-129.482c0-2.012.295-3.9.834-5.711 2.656-9.099 12.088-15.644 28.156-19.447-.09.006 7.387-2.078 7.387-2.078 3.814-1.229 7.187-2.692 9.958-4.274 3.461-1.81 6.198-3.748 7.963-5.591l-.035.089c.242-.287.578-.609 1.113-1.175l1.432-1.411 2.519 2.452c1.815 1.898 4.555 3.826 7.954 5.625 2.802 1.593 6.195 3.025 10.115 4.31 0 0-.098-.019-.186-.025.582.142 2.213.582 7.567 2.084 16.009 3.816 25.402 10.342 28.084 19.441.533 1.811.806 3.699.806 5.711v71.007c.149.509 1.391 2.782 3.59 4.435.811.641 1.738 1.176 2.791 1.498l4.112 1.271v33.963z" style="fill:#fff;fill-opacity:1;fill-rule:nonzero;stroke:none" transform="translate(299.963 505.485)"/><path d="M0 0s-2.016-2.506-3.348-4.186c-1.705-2.08-1.986-5.532.586-8.574 2.571-3.073 16.067-19.157 16.067-19.157l.408-.487.383.487 3.248 3.452c.681.839.578 2.367-.221 3.234 0 0-16.035 18.965-16.965 20.083C-1.076-3.62-.871-1.429 0 0" style="fill:#e13a3e;fill-opacity:1;fill-rule:nonzero;stroke:none" transform="translate(298.873 480.61)"/><path d="M0 0c.676.826.568 2.347-.215 3.208 0 0-16.049 18.985-16.973 20.107-1.246 1.52-1.035 3.715-.171 5.138 0 0-2.036-2.498-3.362-4.176-1.683-2.084-1.968-5.542.602-8.594C-17.541 12.641-4.051-3.448-4.051-3.448l.344-.429h.123l.34.429z" style="fill:#e13a3e;fill-opacity:1;fill-rule:nonzero;stroke:none" transform="translate(310.172 444.32)"/><path d="M0 0s-1.998-2.49-3.357-4.158c-1.676-2.09-1.959-5.546.613-8.604 1.379-1.631 5.933-7.068 9.839-11.73h9.43C13.542-21 .986-6.145.182-5.134-1.086-3.616-.844-1.435 0 0" style="fill:#e13a3e;fill-opacity:1;fill-rule:nonzero;stroke:none" transform="translate(286.754 464.935)"/><path d="m0 0 .068.075h-.115Z" style="fill:#e13a3e;fill-opacity:1;fill-rule:nonzero;stroke:none" transform="translate(307.03 440.338)"/><path d="M0 0s-3.928 40.848-4.447 46.949c-.512 6.049-6.783 7.76-6.783 10.369v16.51H18.262v-16.51c0-2.609-6.203-4.33-6.793-10.369L7.027 0c-.172-1.201-1.144-3.08-3.314-3.08C1.568-3.08.303-1.771 0 0" style="fill:#fff;fill-opacity:1;fill-rule:nonzero;stroke:none" transform="translate(296.496 363.84)"/><path d="M0 0c0-1.212.791-2.021 1.645-2.877 1.099-1.168 3.578-2.491 3.794-4.991.42-4.853 3.729-47.588 3.854-49.08l.092-.777c.158-1.65.424-2.414 1.23-2.414.787 0 .914 1.088 1.014 2.414l.072.777c.129 1.492 3.442 44.291 3.865 49.08.227 2.5 2.686 3.823 3.801 4.991.848.856 1.621 1.665 1.621 2.877v10.416H0Z" style="fill:#e13a3e;fill-opacity:1;fill-rule:nonzero;stroke:none" transform="translate(289.514 423.18)"/><path d="m0 0-2.359-.734c-5.416-1.671-8.118-7.209-8.118-8.319v-71.008c0-10.828-9.115-18.486-27.062-22.736l-7.498-2.096c-4.08-1.343-7.623-2.855-10.508-4.503-3.658-1.934-6.627-4.024-8.533-6.028l-.77-.744-.722.744c-1.92 2.004-4.869 4.084-8.522 6.028-2.898 1.648-6.425 3.169-10.527 4.503l-7.48 2.096c-17.967 4.25-27.082 11.908-27.082 22.736v71.008c0 1.11-2.692 6.648-8.111 8.319l-2.36.734v30.185l64.607 16.595.227.058L0 30.185Zm-64.818 49.421-.621-.163-66.699-17.145V-1.85l4.111-1.271c1.051-.321 1.983-.857 2.787-1.498 2.199-1.653 3.446-4 3.582-4.667v-13.582l-.008-36.005V-80.061c0-2.011.295-3.9.834-5.71 2.657-9.1 12.088-15.645 28.157-19.448-.09.006 7.386-2.078 7.386-2.078 3.815-1.228 7.188-2.691 9.959-4.273 3.461-1.811 6.197-3.748 7.963-5.592l-.035.09c.242-.287.578-.61 1.113-1.176l1.432-1.41 2.519 2.451c1.815 1.898 4.555 3.826 7.953 5.625 2.803 1.594 6.196 3.025 10.115 4.311 0 0-.097-.02-.185-.026.582.143 2.213.582 7.566 2.084 16.01 3.817 25.403 10.342 28.084 19.442.534 1.81.807 3.699.807 5.71v71.008c.148.509 1.391 2.781 3.59 4.434.81.641 1.738 1.177 2.791 1.498L2.494-1.85v33.963z" style="fill:#024ea2;fill-opacity:1;fill-rule:nonzero;stroke:none" transform="translate(364.781 456.063)"/><path d="m0 0-33.994-38.77v15.287h-11.149l-.058-.067-.057.067h-19.091c-6.344 7.519-7.453 8.904-8.576 10.199-1.405 1.66-2.139 3.984-1.84 6.107.297 2.049 1.066 3.541 2.887 5.762l19.642 23.689a7.235 7.235 0 0 1-.159-1.415c0-2.727 2.786-5.641 5.219-8.535 0 0 12.332-14.695 12.61-15.031 1.423-1.691 2.548-3.056 2.392-5.625l20.928 23.958C-5.711 13.955-1.424 12.679 0 12.324Zm-44.762-23.533h.137l-.078-.059zm7.782-19.259c0-2.588-6.202-4.311-6.778-10.356-.594-6.01-4.445-46.955-4.445-46.955-.158-1.205-1.149-3.072-3.32-3.072-2.155 0-3.401 1.316-3.717 3.072 0 0-3.93 40.855-4.465 46.955-.475 6.055-6.761 7.768-6.761 10.356v16.516H-36.98zm-50.057-52.243c-4.588 1.838-8.341 4.311-9.074 7.653-.158.433-.219.847-.137 1.177v9.774l28.637 29.16c2.194-1.568 3.817-2.77 4.133-5.316.02-.057.035-.246.035-.246s.854-6.424 1.839-16.305zM6.346 17.11a174597.9 174597.9 0 0 1-58.721 14.971c-.41-.089-57.572-14.668-58.755-14.971V-3.341c6.779-3.23 10.57-10.034 10.57-13.668v-71.114c0-7.322 7.453-12.781 22.162-16.261 4.441-1.026 19.089-4.94 26.023-11.637 6.896 6.697 21.543 10.611 25.988 11.637 14.688 3.48 22.157 8.939 22.157 16.261v71.114c0 3.628 3.796 10.438 10.576 13.668z" style="fill:#024ea2;fill-opacity:1;fill-rule:nonzero;stroke:none" transform="translate(351.727 463.932)"/><path d="m0 0-7.906-.016 2.254 3.92H0Zm0 12.907V6.239l-4.328-.022 1.758 3.1c0 2.396-1.522 2.028-1.522 2.028h-9.562l-1.625-2.438 9.111.017-9.9-17.603-2.131-.898h4.822l4.148 7.257L0-2.332v-10.099l3.086-.01v25.993l-4.408-.024z" style="fill:#fff;fill-opacity:1;fill-rule:nonzero;stroke:none" transform="translate(271.643 431.416)"/><path d="m0 0 1.344-.621v-25.348H4.43V.023Z" style="fill:#fff;fill-opacity:1;fill-rule:nonzero;stroke:none" transform="translate(276.012 444.945)"/><path d="m0 0 .02 2.986h4.386V-.006Zm-3.377-1.412H-13.91v5.478l10.549-.025ZM2.986 8.676l1.442-.699V5.516L.02 5.525v1.147h-18.756l1.466-.777v-9.786L0-3.939v1.4l4.406-.022v-2.08l3.383-.021.022 13.338Z" style="fill:#fff;fill-opacity:1;fill-rule:nonzero;stroke:none" transform="translate(335.422 412.876)"/><path d="M0 0c-.432-2.039-3.082-2.916-5.887-1.926-2.826.987-4.705 3.446-4.267 5.502.455 2.057 3.082 2.908 5.886 1.947C-1.459 4.514.457 2.053 0 0m-5.115 8.461c-5.16.006-9.326-2.979-9.326-6.664 0-3.686 4.15-6.69 9.304-6.711 5.137-.01 9.33 2.988 9.33 6.66.016 3.69-4.172 6.692-9.308 6.715" style="fill:#fff;fill-opacity:1;fill-rule:nonzero;stroke:none" transform="translate(337.12 399.093)"/></g></svg>