<svg width="166" height="225" viewBox="0 0 166 225" fill="none" xmlns="http://www.w3.org/2000/svg">
<path d="M160 147.5C160 190.302 125.302 225 82.5 225C39.6979 225 5 190.302 5 147.5C5 104.698 39.6979 70 82.5 70C125.302 70 160 104.698 160 147.5ZM43.8596 147.5C43.8596 168.841 61.1595 186.14 82.5 186.14C103.841 186.14 121.14 168.841 121.14 147.5C121.14 126.159 103.841 108.86 82.5 108.86C61.1595 108.86 43.8596 126.159 43.8596 147.5Z" fill="#FC6400"/>
<circle cx="11" cy="51" r="11" fill="#FC6400"/>
<circle cx="58" cy="11" r="11" fill="#FC6400"/>
<path d="M3.50001 43L51 2.5L65 19.5L18 59.5L3.50001 43Z" fill="#FC6400"/>
<circle cx="61" cy="51" r="11" fill="#FC6400"/>
<circle cx="108" cy="11" r="11" fill="#FC6400"/>
<path d="M53.5 43L101 2.5L115 19.5L68 59.5L53.5 43Z" fill="#FC6400"/>
<circle cx="11" cy="11" r="11" transform="matrix(-1 0 0 1 117 41)" fill="#FC6400"/>
<circle cx="11" cy="11" r="11" transform="matrix(-1 0 0 1 70 1)" fill="#FC6400"/>
<path d="M113.5 44L66 3.5L52 20.5L99 60.5L113.5 44Z" fill="#FC6400"/>
<circle cx="11" cy="11" r="11" transform="matrix(-1 0 0 1 166 40)" fill="#FC6400"/>
<circle cx="11" cy="11" r="11" transform="matrix(-1 0 0 1 119 0)" fill="#FC6400"/>
<path d="M162.5 43L115 2.5L101 19.5L148 59.5L162.5 43Z" fill="#FC6400"/>
<circle cx="11" cy="51" r="11" fill="#FC6400"/>
<circle cx="58" cy="11" r="11" fill="#FC6400"/>
<path d="M3.50001 43L51 2.5L65 19.5L18 59.5L3.50001 43Z" fill="#FC6400"/>
</svg>
