<svg xmlns="http://www.w3.org/2000/svg" width="266.4" height="172.8" xmlns:xlink="http://www.w3.org/1999/xlink" viewBox="0 0 266.4 172.8">
  <defs>
    <path id="a" d="M66.302 97.544v-.01m.284 2.466v-.01l.005.007c.97-.586 2.106-.923 3.32-.923 1.46 0 2.804.486 3.883 1.304.417-.332.945-.533 1.52-.533 1.35 0 2.444 1.094 2.444 2.443 0 .44-.12.853-.322 1.21 1.958 1.103 3.28 3.2 3.28 5.604 0 .92-.194 1.795-.542 2.587 1.21.853 2.114 2.114 2.51 3.583 1.538-.897 3.327-1.413 5.236-1.413 4.056 0 7.572 2.318 9.293 5.7.394-.27.87-.43 1.383-.43.742 0-1.83-.09-1.383.43 1.91-2.325 4.804-3.81 8.05-3.81 3.394 0 6.408 1.622 8.31 4.133 3.057-3.106 7.31-5.033 12.015-5.033.94 0 1.862.078 2.76.227.664-1.28 2.095-2.06 3.64-2.06 2.2 0 3.984 1.784 3.984 3.985 0 .45-.177.987.107 1.11 4.644 2.035 9.46 8.23 9.59 13.583.95-.55 2.05-.865 3.222-.865 1.67 0 3.19.638 4.332 1.68 1.11-1.926 3.19-3.222 5.574-3.222 2.622 0 4.877 1.57 5.88 3.82.507-3.044 3.15-5.364 6.34-5.364 1.862 0 3.537.792 4.71 2.056 1.435-4.044 5.29-6.94 9.824-6.94 1.183 0 3.538-.548 3.376.56 2.06-13.997 15.515-7.53 15.515-7.53l-.304.82-.07.184c-.142.37-.286.738-.433 1.106-.027.076-.062.15-.09.228-.158.388-.314.773-.48 1.158-.015.04-.036.083-.052.124-.156.364-.315.728-.478 1.088-.024.058-.05.114-.074.17-.17.378-.343.753-.52 1.127 0 .003-.004.006-.004.01l-.1.206c-.168.356-.34.71-.514 1.063l-.09.175c-.17.348-.35.692-.53 1.038l-.1.2c-.003.002-.003.002-.003.004-.193.364-.387.728-.582 1.087l-.098.178c-.192.348-.386.694-.582 1.038-.02.034-.036.067-.058.102-.206.358-.414.712-.625 1.067-.043.07-.083.14-.126.208-.204.34-.412.68-.62 1.015-.034.055-.07.108-.105.163-.205.33-.417.656-.628.98-.028.045-.06.09-.086.134-.012.017-.02.033-.033.05-.232.355-.47.71-.707 1.06-.016.02-.027.04-.04.06-.24.347-.48.69-.723 1.036l-.073.104c-.236.33-.476.656-.717.984-.047.062-.09.124-.135.186-.242.323-.487.646-.732.965-.02.024-.037.048-.056.072-.027.032-.052.064-.08.1-.238.31-.48.62-.726.924-.015.017-.027.032-.04.05l-.07.085c-.263.325-.53.65-.796.972-.02.02-.037.04-.052.062-.27.32-.543.642-.818.958-.02.026-.046.054-.067.08-.02.02-.04.043-.058.065-.255.293-.512.582-.772.87-.02.02-.037.043-.055.064-.03.033-.062.065-.09.098-.27.297-.538.59-.81.882l-.166.173c-.278.296-.558.587-.84.876l-.088.09c-.272.277-.546.553-.824.825l-.165.166c-.285.28-.57.557-.858.83-.016.013-.028.025-.044.04l-.128.12c-.28.264-.558.523-.843.782l-.147.135c-.287.262-.578.522-.872.778l-.188.165c-.31.27-.618.536-.934.802-.034.03-.07.06-.107.09-.294.248-.592.492-.892.736l-.156.126c-.316.256-.635.51-.954.758l-.003.002c-.06.05-.125.098-.19.148-.303.234-.605.466-.912.694-.054.04-.106.082-.16.124-.31.23-.62.456-.933.68l-.174.127c-.013.008-.02.014-.034.02-.325.235-.656.467-.987.695l-.175.12c-.318.22-.64.437-.965.65-.033.022-.07.047-.107.07-.343.227-.686.448-1.035.67-.07.045-.143.09-.213.137-.328.206-.66.41-.99.61l-.177.107c-.004 0-.004 0-.007.003-.327.2-.658.395-.992.588-.042.024-.082.05-.125.072l-.092.054c-.34.197-.683.39-1.025.58l-.22.12c-.35.192-.7.382-1.052.57l-.077.04c-.365.19-.732.378-1.1.565-.074.035-.147.072-.22.11-.356.178-.715.353-1.073.525l-.12.057c-.033.017-.07.034-.106.05-.35.166-.7.332-1.053.49-.016.01-.03.017-.046.022-.052.022-.1.046-.15.067-.352.162-.707.316-1.062.47l-.24.105c-.372.157-.742.312-1.113.464l-.055.022-.117.046c-.358.146-.72.29-1.08.43l-.16.06-.05.02c-.38.145-.765.287-1.147.427-.083.03-.163.06-.242.087-.377.135-.757.27-1.14.397-.056.02-.113.037-.172.057-.367.124-.73.244-1.103.36-.08.027-.163.052-.243.078-.392.122-.784.243-1.18.36-.006 0-.01 0-.015.004l-.208.06c-.37.107-.745.214-1.118.316-.067.02-.132.035-.2.054-.388.105-.78.206-1.172.306-.086.023-.175.045-.264.066-.398.1-.8.196-1.2.288l-.176.04c-.386.087-.77.17-1.154.252-.07.016-.145.03-.218.046-.41.084-.82.166-1.23.244-.09.015-.176.03-.26.047-.388.07-.773.14-1.16.203-.07.012-.14.022-.21.035-.398.065-.797.125-1.198.186l-.227.033c-.016.002-.027.005-.043.006-.413.06-.83.115-1.247.167-.076.01-.152.02-.23.028-.397.05-.795.093-1.193.136l-.153.016c-.425.044-.853.084-1.282.12-.092.01-.188.015-.28.022-.4.032-.805.06-1.21.087-.066.004-.134.01-.204.012-.01 0-.02 0-.033.003-.403.024-.808.044-1.212.062l-.14.007-.137.005c-.415.016-.832.028-1.248.037l-.273.007c-.448.007-.892.014-1.34.014-.303 0-.603-.003-.903-.007-.1 0-.2-.003-.3-.005l-.6-.01c-.12-.004-.24-.01-.357-.012-.18-.006-.36-.01-.54-.017-.126-.005-.254-.01-.38-.017-.172-.008-.344-.015-.513-.024l-.395-.02c-.067-.004-.132-.01-.2-.012-.098-.006-.198-.01-.296-.017-.135-.008-.27-.02-.404-.027-.16-.01-.322-.02-.484-.034-.138-.01-.272-.02-.407-.032-.11-.008-.223-.02-.335-.027l-.143-.012c-.138-.01-.273-.025-.41-.037h-.006l-.466-.045c-.138-.014-.275-.027-.412-.043l-.47-.05c-.135-.016-.272-.03-.41-.048-.097-.01-.193-.022-.292-.035l-.173-.02c-.136-.018-.274-.035-.41-.054-.155-.02-.308-.04-.463-.062-.136-.018-.273-.037-.41-.058l-.09-.012c-.123-.017-.246-.037-.37-.054-.136-.02-.273-.04-.408-.062l-.26-.042c-.066-.01-.133-.02-.197-.032-.138-.02-.272-.043-.408-.065-.152-.026-.305-.052-.455-.08-.137-.022-.27-.046-.407-.07l-.244-.046c-.07-.013-.138-.025-.21-.04l-.403-.075-.362-.072-.09-.02c-.134-.025-.27-.053-.4-.08-.152-.03-.304-.062-.455-.095l-.396-.085c-.018-.004-.034-.007-.05-.012-.137-.028-.27-.06-.405-.09-.132-.028-.263-.058-.393-.09-.072-.016-.143-.032-.214-.05l-.245-.058-.384-.092c-.113-.027-.227-.057-.34-.086l-.13-.03-.37-.094-.495-.132c-.113-.03-.227-.058-.34-.09-.077-.02-.155-.043-.233-.064-.15-.04-.3-.083-.45-.124-.137-.038-.273-.078-.41-.118l-.386-.11c-.055-.02-.11-.033-.165-.05-.123-.036-.246-.074-.368-.112l-.07-.02c-.127-.04-.255-.077-.383-.117-.13-.04-.26-.082-.39-.124l-.427-.136-.4-.132-.206-.068-.204-.067c-.136-.046-.27-.092-.404-.14l-.404-.138c-.136-.05-.27-.1-.406-.147l-.085-.03-.312-.112c-.136-.048-.272-.1-.408-.15l-.39-.145-.41-.156c-.062-.025-.123-.05-.185-.072l-.2-.078c-.137-.054-.273-.107-.41-.163l-.025-.01-.354-.142c-.138-.057-.274-.11-.41-.168l-.375-.156c-.136-.056-.273-.114-.41-.173-.063-.025-.128-.053-.19-.08l-.18-.08c-.136-.057-.274-.116-.41-.178l-.363-.162-.412-.187-.356-.16-.413-.194c-.046-.02-.092-.043-.138-.065l-.212-.1c-.138-.065-.277-.13-.416-.198l-.34-.167-.42-.207c-.11-.055-.22-.11-.33-.167-.142-.07-.283-.142-.425-.215l-.203-.105-.117-.06-.43-.226-.214-.115-.09-.047c-.146-.08-.294-.157-.44-.238-.06-.03-.116-.063-.174-.096l-.104-.06c-.154-.083-.308-.168-.46-.253-.08-.043-.156-.09-.234-.132l-.5-.285-.122-.07c-.87-.504-1.73-1.024-2.575-1.563l-.132-.085c-.17-.108-.34-.22-.512-.33l-.19-.124c-.162-.106-.322-.213-.482-.32l-.14-.094-.075-.05-.465-.316-.12-.08-.107-.076c-.152-.103-.303-.208-.453-.313l-.008-.008-.225-.157c-.148-.105-.296-.21-.443-.317-.08-.055-.158-.11-.236-.168-.146-.105-.292-.215-.438-.322l-.1-.073c-.045-.033-.09-.065-.133-.098l-.436-.326-.23-.174c-.144-.11-.288-.22-.432-.332-.07-.056-.143-.11-.214-.166l-.01-.01c-.146-.112-.29-.225-.432-.338l-.193-.154c-.01-.006-.018-.014-.027-.02-.144-.116-.288-.232-.43-.35l-.214-.17-.433-.36-.17-.14c-.01-.01-.02-.02-.032-.027l-.438-.37-.057-.048-.134-.115c-.15-.127-.296-.254-.444-.383-.058-.05-.117-.1-.175-.152l-.45-.398-.024-.02c-.044-.04-.09-.08-.132-.12l-.465-.42c-.028-.024-.055-.05-.082-.075l-.048-.045c-.162-.148-.325-.3-.485-.45-.013-.01-.026-.023-.04-.037l-.05-.046c-.173-.162-.346-.326-.517-.49l-.016-.014c-.003-.004-.007-.01-.012-.012-1.564-1.498-3.06-3.066-4.483-4.7l-.002-.002c-.003-.005-.006-.008-.01-.01-.167-.192-.332-.386-.497-.578-.004-.007-.01-.01-.014-.018l-.03-.035c-.158-.187-.315-.372-.47-.56-.02-.025-.044-.05-.065-.077-.15-.18-.3-.364-.45-.547l-.043-.052c-.01-.015-.022-.03-.034-.043-.146-.18-.292-.36-.436-.543-.028-.034-.055-.07-.083-.103l-.426-.545-.055-.07-.03-.037c-.14-.183-.28-.364-.416-.547-.028-.036-.056-.072-.083-.11-.14-.183-.276-.366-.414-.552l-.018-.024c-.02-.027-.04-.056-.062-.083-.138-.186-.274-.372-.41-.56l-.074-.103c-.137-.19-.273-.383-.41-.576-.01-.016-.024-.034-.036-.05l-.028-.04c-.138-.196-.275-.395-.41-.592l-.03-.04c-.006-.012-.016-.024-.023-.036-.14-.204-.28-.408-.418-.613l-.036-.055c-.142-.214-.285-.427-.425-.643 0-.004-.003-.007-.006-.01 0-.005-.005-.008-.006-.01-.84-1.287-1.64-2.603-2.4-3.946-.25-.445-.496-.892-.737-1.342l-.01-.02c-.97-1.81-1.866-3.67-2.68-5.568 0-.003 0-.004-.002-.007-.107-.25-.213-.5-.318-.752v-.005l-.007-.014c-.103-.25-.205-.5-.305-.75v-.004l-.01-.02c-.1-.25-.198-.502-.295-.75-.003-.01-.006-.018-.01-.025-.096-.252-.193-.505-.288-.758l-.006-.018c-.098-.256-.19-.514-.285-.772v-.003c-.708-1.963-1.333-3.963-1.868-6.002-.897-3.395-1.427-6.157-1.81-9.728m83.203-12.375l10.406-23.254c.894 2.673 2.067 10.793-.414 17.605-3.967 10.89-9.2 18.235-9.2 18.235l-.792-12.585zm-12.418-2.945l7.138 2.597.23 3.014-9.48-3.448 2.112-2.162zm-8.287-13.872c2.485-6.825 8.626-12.296 11.017-13.76l-6.92 24.426-8.775 9.214s.713-8.99 4.678-19.88zm20.672-41.495c-4.004-.79-8.142-1.207-12.377-1.207-32.376 0-59.09 24.228-62.99 55.533-.962 9.51-.408 14.72-.408 14.72-3.488-2.303-7.59-.19-7.59-.19-.833-14.116.63-15.575.195-15.377.034-.27.068-.54.104-.81l.005-.027c.035-.265.072-.53.11-.792l.005-.037.12-.79c0-.008.003-.016.004-.023.474-2.987 1.133-5.915 1.966-8.765 0-.006.002-.012.004-.017.073-.253.15-.505.226-.755l.01-.03c.076-.25.153-.5.232-.75.002-.01.005-.016.008-.025.895-2.82 1.96-5.562 3.185-8.217l.014-.034c.105-.23.212-.458.32-.684l.025-.053c.106-.225.214-.448.322-.67l.028-.057c.11-.224.22-.447.333-.67l.02-.04c.116-.23.232-.458.35-.685v-.003c.974-1.884 2.03-3.717 3.16-5.496l.02-.03c.13-.206.262-.41.395-.612.016-.025.032-.05.05-.075.125-.195.254-.39.382-.583.02-.032.043-.064.064-.096.126-.19.254-.378.382-.567l.07-.1c.128-.19.258-.376.388-.562l.068-.097.4-.563.056-.077c.14-.194.28-.388.422-.58l.024-.034c.93-1.267 1.902-2.5 2.913-3.7l.007-.01.457-.537c.024-.03.05-.06.074-.087.143-.166.287-.33.43-.494l.11-.123c.136-.156.275-.312.415-.468l.127-.142c.136-.15.272-.302.41-.452.046-.05.09-.1.137-.148l.412-.444.14-.147c.138-.147.278-.294.418-.44l.134-.14c.144-.148.287-.297.433-.445l.117-.12.458-.458.073-.074c.89-.883 1.804-1.743 2.74-2.58.03-.027.06-.056.093-.083.152-.136.305-.27.458-.405.053-.046.105-.092.16-.138.142-.125.287-.25.432-.373.062-.052.125-.107.19-.16.14-.12.28-.238.42-.355l.208-.174.414-.34c.073-.06.146-.12.22-.178.137-.112.274-.223.413-.333.074-.062.15-.12.225-.18.138-.11.276-.218.415-.326l.226-.177.42-.324.223-.168.432-.325.207-.153c.15-.11.302-.223.454-.333.053-.04.106-.077.16-.114.588-.427 1.184-.845 1.787-1.253l.02-.014.473-.316c.07-.048.143-.096.214-.143l.43-.282.263-.17c.137-.088.275-.176.414-.263l.284-.18.407-.252.297-.183.403-.244.307-.183c.132-.08.266-.158.4-.237.105-.06.21-.123.314-.183l.4-.23.318-.18c.133-.076.267-.15.4-.225l.324-.18c.134-.072.268-.146.402-.22l.327-.173c.133-.073.268-.145.402-.216l.327-.17c.136-.07.27-.142.408-.212l.315-.158c.275-.14.55-.275.827-.41l.315-.156.393-.187.36-.17.39-.18.37-.17.387-.173.376-.167.39-.168.38-.165c.128-.054.257-.11.386-.163l.386-.16.387-.158c.13-.054.26-.105.39-.157.13-.053.26-.105.388-.154.132-.052.265-.104.398-.154.128-.05.255-.1.384-.147.136-.05.272-.1.407-.152l.38-.14.418-.15c.124-.044.248-.09.373-.133.146-.05.293-.1.44-.152l.354-.12c.168-.058.337-.113.506-.168l.294-.098c.263-.085.527-.17.792-.25l.29-.09c.174-.052.345-.105.52-.156l.345-.1c.154-.047.31-.093.467-.138l.364-.102.455-.125.374-.1c.148-.04.298-.08.448-.118l.378-.097.45-.113.38-.092.45-.107c.127-.03.254-.06.382-.088.15-.035.303-.07.455-.103l.38-.083c.155-.035.31-.066.464-.1l.374-.077c.16-.033.32-.063.48-.095l.36-.07c.17-.032.338-.064.51-.094.11-.02.224-.043.337-.062l.58-.1c.088-.016.178-.032.27-.046.28-.047.563-.093.847-.135.06-.008.117-.015.172-.024.23-.035.457-.068.685-.1.104-.015.21-.03.315-.043.18-.025.36-.05.545-.073.116-.015.236-.03.353-.043l.51-.062.37-.04c.164-.02.33-.038.495-.055.127-.013.254-.025.382-.04l.488-.045.386-.034c.162-.012.325-.026.488-.04.13-.01.26-.02.388-.028.162-.013.328-.025.49-.035l.388-.025c.165-.01.33-.02.498-.028l.383-.02c.167-.01.337-.016.507-.022l.372-.015c.177-.007.356-.012.534-.017.116-.004.232-.008.35-.01.197-.005.395-.01.592-.012.1 0 .196-.004.294-.005.296-.004.593-.006.89-.006.335 0 .668.002 1.005.007.104 0 .21.004.316.005.23.004.46.008.69.015.122.003.24.007.364.012.217.007.435.015.65.024l.36.016c.224.01.447.022.67.035l.325.02c.257.015.51.032.765.05l.224.016c.68.05 1.36.11 2.033.18l.073.01c.31.03.62.065.93.102l.167.02c.282.034.56.07.843.106l.175.023c.292.04.58.08.867.122.04.005.083.01.123.017 1.7.252 3.382.566 5.04.937.005 0 .01.002.017.004.334.074.665.15.996.23-.47.673-.938 1.387-1.403 2.133-.982 1.54-1.94 3.2-2.853 4.973zm12.176-.976c-1.262-.46-2.66.19-3.118 1.45-.456 1.26.193 2.652 1.458 3.112 1.262.458 2.655-.19 3.115-1.45.46-1.26-.194-2.654-1.455-3.113zm-6.44 10.572c-.46 1.26.193 2.652 1.456 3.11 1.26.46 2.657-.188 3.117-1.448.46-1.26-.193-2.652-1.458-3.112-1.263-.46-2.66.19-3.116 1.45zm-6.897 48.247l-14.224-5.175 11.062-37.207c6.754-23.862 19.193-32.81 22.19-32.07 2.77 1.358 6.548 16.206-3.625 38.824l-15.404 35.627zm60.102 5.46c0 .107-.004.213-.004.32l-.018.76c-.007.115-.01.23-.013.342-.01.27-.02.536-.033.806l-.01.253c-.02.36-.04.72-.062 1.08v.01c-.024.352-.05.7-.076 1.05l-.02.24c-.023.282-.048.565-.075.85-.006.08-.016.16-.02.24l-.103.962-.01.09c-.042.368-.134 1.107-.134 1.107s-.18 1.618-.364 2.828c-.486 3.193-.942 4.978-1.323 6.52-.336 1.353-.897 2.73-1.484 4.108 0 0-3.49-2.1-8.44-1.544 0 0 .636-1.07.98-1.83.337-.75.61-1.34 1.053-2.672.426-1.28.78-2.665 1.103-4.092.312-1.39.57-2.93.653-3.742.082-.812.21-2.054.21-2.054s.352-4.436.352-6.697c0-22.868-12.105-42.91-30.26-54.075.204-.968.38-1.913.522-2.83.386-1.943.662-3.767.833-5.463.674.373 1.34.757 1.998 1.15l.076.047c.978.587 1.943 1.198 2.893 1.83.02.015.046.03.067.046.634.424 1.262.857 1.88 1.3l.04.03c.298.213.595.43.886.646.02.013.034.025.052.038.61.452 1.21.914 1.805 1.383l.07.057c.288.228.573.458.857.69l.016.014c.588.48 1.164.97 1.733 1.47.027.023.055.048.085.072.567.5 1.13 1.007 1.682 1.523.007.004.01.01.016.014.264.247.523.497.787.75l.083.08c.54.522 1.068 1.05 1.593 1.588.02.022.04.044.064.066.238.25.478.5.714.75.027.027.052.055.076.082.51.543 1.01 1.093 1.5 1.652l.093.104c.227.257.45.516.674.776.02.022.037.044.056.066.48.565.952 1.138 1.415 1.718.033.043.067.086.104.13.218.275.436.553.652.833l.02.026c.23.3.46.6.686.906.02.022.033.045.052.068.2.27.398.54.595.814.033.047.07.096.104.146.43.596.85 1.198 1.257 1.81.03.042.062.087.09.13.177.266.352.532.526.8.033.05.064.1.098.15.397.613.782 1.234 1.162 1.858.034.058.067.117.104.174l.478.812.083.142c.187.32.367.642.548.966.01.015.016.03.024.044.168.298.33.597.492.898.037.068.07.136.107.205.152.282.303.566.45.85.018.04.036.075.055.112.168.327.333.655.496.983.025.048.05.096.07.144.14.276.273.556.405.835.037.074.073.147.107.223.146.312.29.625.435.94l.02.037c.15.332.296.666.443 1 .027.07.058.14.09.208.115.27.228.542.342.815.034.077.064.152.095.23.276.666.542 1.338.797 2.015l.092.248c.1.274.202.547.3.822l.08.22c.122.342.242.686.355 1.03.016.038.028.08.04.117.104.3.202.604.3.91.028.092.06.183.087.275.09.284.178.57.263.855.02.064.04.128.062.192.102.346.202.693.304 1.042.02.07.036.14.058.212.077.282.156.564.23.848.024.096.052.192.076.29.08.31.162.622.235.934.013.04.02.08.034.122.085.352.167.705.247 1.06.02.088.04.177.062.267l.18.827c.02.097.04.195.062.29.146.712.284 1.43.41 2.147.02.102.037.202.052.303.05.277.092.556.138.834.016.093.03.186.043.28.06.36.11.72.163 1.082.006.054.012.11.02.164.044.31.084.62.12.93.016.11.028.217.04.324.034.29.068.58.1.87l.026.245c.037.363.07.73.104 1.095.006.084.012.167.02.25.025.29.047.582.068.873.006.11.015.22.02.332.022.316.04.634.06.95.002.057.006.113.01.17.018.37.032.74.048 1.11l.01.3c.01.285.015.57.02.855.003.108.007.216.007.326.007.373.01.75.01 1.124-.003.353-.006.706-.012 1.06z"/>
  </defs>
  <use fill-rule="evenodd" xlink:href="#a" overflow="visible" clip-rule="evenodd"/>
</svg>
